<mxfile host="app.diagrams.net" modified="2023-06-01T09:00:10.840Z" agent="Mozilla/5.0 (Windows NT 10.0; Win64; x64) AppleWebKit/537.36 (KHTML, like Gecko) Chrome/113.0.0.0 Safari/537.36" etag="5AJ9Gz6yFNoR9AOHhA_f" version="21.3.5" type="github">
  <diagram name="Page-1" id="2YBvvXClWsGukQMizWep">
    <mxGraphModel dx="1114" dy="561" grid="1" gridSize="10" guides="1" tooltips="1" connect="1" arrows="1" fold="1" page="1" pageScale="1" pageWidth="1100" pageHeight="850" math="0" shadow="0">
      <root>
        <mxCell id="0" />
        <mxCell id="1" parent="0" />
        <mxCell id="St9Z5-Il_YH2CRVSZaPx-1" value="" style="rounded=0;whiteSpace=wrap;html=1;strokeColor=#7f7676;strokeWidth=2;" vertex="1" parent="1">
          <mxGeometry x="30" y="80" width="940" height="510" as="geometry" />
        </mxCell>
        <mxCell id="St9Z5-Il_YH2CRVSZaPx-5" value="Acteur" style="shape=umlLifeline;perimeter=lifelinePerimeter;whiteSpace=wrap;html=1;container=1;dropTarget=0;collapsible=0;recursiveResize=0;outlineConnect=0;portConstraint=eastwest;newEdgeStyle={&quot;edgeStyle&quot;:&quot;elbowEdgeStyle&quot;,&quot;elbow&quot;:&quot;vertical&quot;,&quot;curved&quot;:0,&quot;rounded&quot;:0};" vertex="1" parent="1">
          <mxGeometry x="130" y="150" width="100" height="400" as="geometry" />
        </mxCell>
        <mxCell id="St9Z5-Il_YH2CRVSZaPx-8" value="" style="html=1;points=[];perimeter=orthogonalPerimeter;outlineConnect=0;targetShapes=umlLifeline;portConstraint=eastwest;newEdgeStyle={&quot;edgeStyle&quot;:&quot;elbowEdgeStyle&quot;,&quot;elbow&quot;:&quot;vertical&quot;,&quot;curved&quot;:0,&quot;rounded&quot;:0};" vertex="1" parent="St9Z5-Il_YH2CRVSZaPx-5">
          <mxGeometry x="45" y="40" width="10" height="330" as="geometry" />
        </mxCell>
        <mxCell id="St9Z5-Il_YH2CRVSZaPx-6" value="Système" style="shape=umlLifeline;perimeter=lifelinePerimeter;whiteSpace=wrap;html=1;container=1;dropTarget=0;collapsible=0;recursiveResize=0;outlineConnect=0;portConstraint=eastwest;newEdgeStyle={&quot;edgeStyle&quot;:&quot;elbowEdgeStyle&quot;,&quot;elbow&quot;:&quot;vertical&quot;,&quot;curved&quot;:0,&quot;rounded&quot;:0};" vertex="1" parent="1">
          <mxGeometry x="430" y="150" width="100" height="400" as="geometry" />
        </mxCell>
        <mxCell id="St9Z5-Il_YH2CRVSZaPx-9" value="" style="html=1;points=[];perimeter=orthogonalPerimeter;outlineConnect=0;targetShapes=umlLifeline;portConstraint=eastwest;newEdgeStyle={&quot;edgeStyle&quot;:&quot;elbowEdgeStyle&quot;,&quot;elbow&quot;:&quot;vertical&quot;,&quot;curved&quot;:0,&quot;rounded&quot;:0};" vertex="1" parent="St9Z5-Il_YH2CRVSZaPx-6">
          <mxGeometry x="45" y="110" width="10" height="250" as="geometry" />
        </mxCell>
        <mxCell id="St9Z5-Il_YH2CRVSZaPx-7" value="Serveur" style="shape=umlLifeline;perimeter=lifelinePerimeter;whiteSpace=wrap;html=1;container=1;dropTarget=0;collapsible=0;recursiveResize=0;outlineConnect=0;portConstraint=eastwest;newEdgeStyle={&quot;edgeStyle&quot;:&quot;elbowEdgeStyle&quot;,&quot;elbow&quot;:&quot;vertical&quot;,&quot;curved&quot;:0,&quot;rounded&quot;:0};" vertex="1" parent="1">
          <mxGeometry x="730" y="150" width="100" height="400" as="geometry" />
        </mxCell>
        <mxCell id="St9Z5-Il_YH2CRVSZaPx-10" value="" style="html=1;points=[];perimeter=orthogonalPerimeter;outlineConnect=0;targetShapes=umlLifeline;portConstraint=eastwest;newEdgeStyle={&quot;edgeStyle&quot;:&quot;elbowEdgeStyle&quot;,&quot;elbow&quot;:&quot;vertical&quot;,&quot;curved&quot;:0,&quot;rounded&quot;:0};" vertex="1" parent="St9Z5-Il_YH2CRVSZaPx-7">
          <mxGeometry x="45" y="190" width="10" height="170" as="geometry" />
        </mxCell>
        <mxCell id="St9Z5-Il_YH2CRVSZaPx-11" value="login(nom d&#39;utilisateur, mot de passe)" style="html=1;verticalAlign=bottom;endArrow=block;edgeStyle=elbowEdgeStyle;elbow=vertical;curved=0;rounded=0;" edge="1" parent="1">
          <mxGeometry width="80" relative="1" as="geometry">
            <mxPoint x="190" y="280.53" as="sourcePoint" />
            <mxPoint x="472" y="280.53" as="targetPoint" />
          </mxGeometry>
        </mxCell>
        <mxCell id="St9Z5-Il_YH2CRVSZaPx-13" value="Requête API" style="html=1;verticalAlign=bottom;endArrow=block;edgeStyle=elbowEdgeStyle;elbow=vertical;curved=0;rounded=0;" edge="1" parent="1">
          <mxGeometry width="80" relative="1" as="geometry">
            <mxPoint x="490" y="360" as="sourcePoint" />
            <mxPoint x="772" y="360" as="targetPoint" />
          </mxGeometry>
        </mxCell>
        <mxCell id="St9Z5-Il_YH2CRVSZaPx-14" value="Confirmation" style="html=1;verticalAlign=bottom;endArrow=open;dashed=1;endSize=8;edgeStyle=elbowEdgeStyle;elbow=vertical;curved=0;rounded=0;" edge="1" parent="1">
          <mxGeometry relative="1" as="geometry">
            <mxPoint x="770" y="480" as="sourcePoint" />
            <mxPoint x="489" y="480" as="targetPoint" />
          </mxGeometry>
        </mxCell>
        <mxCell id="St9Z5-Il_YH2CRVSZaPx-16" value="Verification" style="html=1;align=left;spacingLeft=2;endArrow=block;rounded=0;edgeStyle=orthogonalEdgeStyle;curved=0;rounded=0;" edge="1" parent="1">
          <mxGeometry relative="1" as="geometry">
            <mxPoint x="775" y="390" as="sourcePoint" />
            <Array as="points">
              <mxPoint x="710" y="390" />
              <mxPoint x="710" y="450" />
              <mxPoint x="770" y="450" />
            </Array>
            <mxPoint x="770" y="450" as="targetPoint" />
          </mxGeometry>
        </mxCell>
        <mxCell id="St9Z5-Il_YH2CRVSZaPx-18" value="Acceder à la page d&#39;accueil" style="html=1;verticalAlign=bottom;endArrow=open;dashed=1;endSize=8;edgeStyle=elbowEdgeStyle;elbow=vertical;curved=0;rounded=0;" edge="1" parent="1">
          <mxGeometry relative="1" as="geometry">
            <mxPoint x="471" y="500" as="sourcePoint" />
            <mxPoint x="190" y="500" as="targetPoint" />
          </mxGeometry>
        </mxCell>
      </root>
    </mxGraphModel>
  </diagram>
</mxfile>
